:SAMPLES-PER-SECOND 30
:FULLY-SPECIFIED
:DEGREES
117
root  -33.3146 40.5586 -37.8668 2.23421 23.4377 0.994827
RightUpLeg  4.22636 -17.4044 -18.3729
RightLeg  9.62757 -44.9898 1.59609
RightFoot  3.67449 -1.07667 8.33699
RightToes  0.00048216 0.542163 -0.142577
Spine  13.0709 -0.504994 8.967
Spine1  8.69896 2.38579 -7.31973
HEad  -20.6821 38.9883 -26.8784
LeftShoulder1  8.64133 -12.7395 -46.4062
LeftArm  -17.6835 15.1857 -26.1043
LeftForeArm  38.3754 -75.2109 -43.8916
LeftHand  -0.25398 0.0180481 5.50724
RightShoulder  4.73202 8.85074 32.3607
RightArm  -9.13944 -27.5671 27.4382
RightForeArm  24.704 77.6555 82.1616
RightHand  0.714836 -12.2173 -13.0847
LeftUpLeg  -16.8986 24.7382 4.36316
LeftLeg  10.4312 25.7094 -0.312252
LeftFoot  -1.03399 -0.333096 3.778
LeftToes  1.06243e-005 4.65856e-005 -8.18503e-006
118
root  -32.1055 40.3976 -37.6425 3.52541 27.8216 1.89397
RightUpLeg  6.39981 -17.9152 -20.7149
RightLeg  8.71273 -48.3007 1.61329
RightFoot  4.89056 -1.27489 9.18125
RightToes  0.00048216 0.542163 -0.142577
Spine  10.9554 -0.0381581 7.87165
Spine1  9.67814 2.83795 -7.65752
HEad  -19.0166 36.1618 -23.9743
LeftShoulder1  8.55013 -12.7059 -45.9997
LeftArm  -16.3845 14.9858 -25.902
LeftForeArm  41.2899 -75.87 -46.5639
LeftHand  -0.25398 0.0180481 5.50724
RightShoulder  4.7142 8.82171 32.3061
RightArm  -9.23025 -28.8394 26.9879
RightForeArm  27.727 77.7235 85.4824
RightHand  0.739472 -12.7865 -12.5124
LeftUpLeg  -17.1677 26.3012 1.98194
LeftLeg  10.7906 26.6199 -0.973466
LeftFoot  -0.336151 -0.13672 1.44163
LeftToes  1.06243e-005 4.65856e-005 -8.18503e-006
119
root  -30.8427 40.1979 -37.402 4.32455 32.378 2.97
RightUpLeg  8.56432 -18.107 -22.8662
RightLeg  9.57636 -48.1656 0.28788
RightFoot  2.96329 -1.1196 9.04573
RightToes  0.00048216 0.542163 -0.142577
Spine  9.88665 0.460753 6.26777
Spine1  10.1209 3.1522 -7.24086
HEad  -17.1753 32.7671 -21.1287
LeftShoulder1  8.49994 -12.7161 -45.691
LeftArm  -14.6495 14.7316 -25.5755
LeftForeArm  44.416 -76.5266 -49.7045
LeftHand  -0.25398 0.0180481 5.50724
RightShoulder  4.66045 8.74982 32.0914
RightArm  -9.8112 -30.6792 26.741
RightForeArm  31.5702 77.7547 89.6246
RightHand  0.752837 -13.2326 -12.0498
LeftUpLeg  -18.3669 31.5819 -2.54881
LeftLeg  12.7822 18.6051 -0.379031
LeftFoot  -0.17763 -0.0222485 0.232211
LeftToes  1.06243e-005 4.65856e-005 -8.18503e-006
120
root  -29.6085 40.0184 -37.207 4.55936 37.5226 4.07509
RightUpLeg  9.98654 -17.9251 -23.8288
RightLeg  11.9668 -41.4032 -2.30113
RightFoot  -2.26909 -0.565646 6.73264
RightToes  0.00048216 0.542163 -0.142577
Spine  9.93361 0.57067 4.78457
Spine1  10.2768 3.04973 -6.6185
HEad  -15.3335 29.2222 -18.8288
LeftShoulder1  8.44215 -12.7471 -45.2793
LeftArm  -12.8677 14.0904 -25.2551
LeftForeArm  46.2282 -76.8945 -51.7835
LeftHand  -0.25398 0.0180481 5.50724
RightShoulder  4.62394 8.66743 32.0489
RightArm  -10.9789 -32.189 27.013
RightForeArm  34.4329 77.7526 92.1912
RightHand  0.755513 -13.961 -11.1409
LeftUpLeg  -19.6485 35.8943 -7.55012
LeftLeg  15.2386 8.58818 0.845644
LeftFoot  -1.67398 -0.129999 1.71532
LeftToes  1.06243e-005 4.65856e-005 -8.18503e-006
121
root  -28.4292 39.8933 -37.0537 4.71165 42.585 5.48099
RightUpLeg  10.034 -18.8653 -23.8274
RightLeg  15.132 -27.1189 -4.4912
RightFoot  -8.36542 -0.134139 3.03144
RightToes  0.00048216 0.542163 -0.142577
Spine  10.1635 0.420618 3.52243
Spine1  10.9986 2.81509 -6.40528
HEad  -13.3712 26.0523 -17.1942
LeftShoulder1  8.3812 -12.7912 -44.8126
LeftArm  -11.5438 13.0301 -25.1099
LeftForeArm  45.468 -76.7903 -51.2951
LeftHand  -0.25398 0.0180481 5.50724
RightShoulder  4.62693 8.61782 32.2294
RightArm  -12.1451 -32.6151 27.4968
RightForeArm  34.8166 77.7608 92.1688
RightHand  0.74699 -14.6001 -10.3114
LeftUpLeg  -18.6173 34.3381 -10.0366
LeftLeg  17.0306 4.90465 1.64319
LeftFoot  -4.14315 -0.211602 3.7337
LeftToes  1.06243e-005 4.65856e-005 -8.18503e-006
122
root  -27.3118 39.8254 -36.8929 5.10582 46.5491 7.07619
RightUpLeg  8.04454 -18.1675 -22.5878
RightLeg  19.7914 -12.7182 -5.11886
RightFoot  -12.3238 -0.0687152 0.689867
RightToes  0.00048216 0.542163 -0.142577
Spine  10.1168 0.427271 2.13985
Spine1  11.9824 2.72397 -6.35514
HEad  -10.9732 23.6203 -15.8843
LeftShoulder1  8.32205 -12.7718 -44.5372
LeftArm  -10.9136 12.1759 -25.0568
LeftForeArm  43.2189 -76.392 -49.2418
LeftHand  -0.25398 0.0180481 5.50724
RightShoulder  4.6527 8.62043 32.4341
RightArm  -12.4014 -31.8827 27.6002
RightForeArm  31.9937 77.7603 89.7508
RightHand  0.77229 -14.627 -10.6004
LeftUpLeg  -15.8994 30.8632 -10.6657
LeftLeg  17.8443 4.89122 1.73836
LeftFoot  -6.22977 -0.13648 3.84351
LeftToes  1.06243e-005 4.65856e-005 -8.18503e-006
123
root  -26.2437 39.816 -36.6957 5.38719 49.6993 8.21243
RightUpLeg  4.53886 -12.1439 -19.7154
RightLeg  26.1064 -7.52525 -4.29673
RightFoot  -13.5093 -0.0722822 1.00925
RightToes  0.00048216 0.542163 -0.142577
Spine  10.2188 0.526293 0.753451
Spine1  12.1687 2.51002 -5.90993
HEad  -8.12759 21.8475 -14.4653
LeftShoulder1  8.24174 -12.6288 -44.4963
LeftArm  -10.8609 12.0734 -24.961
LeftForeArm  41.4948 -76.0716 -47.7473
LeftHand  -0.25398 0.0180481 5.50724
RightShoulder  4.67731 8.6411 32.5715
RightArm  -11.6329 -30.5947 27.221
RightForeArm  27.523 77.7153 86.2931
RightHand  0.83164 -14.3998 -11.568
LeftUpLeg  -12.8123 28.1027 -10.3673
LeftLeg  17.9715 4.92146 1.01069
LeftFoot  -7.80704 -0.0260226 2.35871
LeftToes  1.06243e-005 4.65856e-005 -8.18503e-006
124
root  -25.1755 39.9088 -36.4728 5.28336 52.8823 8.47433
RightUpLeg  0.738952 -7.82484 -16.4064
RightLeg  31.5928 -6.43186 -4.52321
RightFoot  -13.279 -0.0530562 2.20278
RightToes  0.00048216 0.542163 -0.142577
Spine  10.355 0.442407 -0.0782341
Spine1  11.7676 2.0281 -5.17969
HEad  -5.41773 20.3275 -12.8637
LeftShoulder1  8.15314 -12.4542 -44.4991
LeftArm  -11.215 12.5665 -24.9432
LeftForeArm  41.1554 -76.0349 -47.646
LeftHand  -0.25398 0.0180481 5.50724
RightShoulder  4.67888 8.62073 32.6491
RightArm  -10.699 -29.5318 26.8452
RightForeArm  24.5641 77.6616 83.9699
RightHand  0.878109 -14.497 -12.0209
LeftUpLeg  -9.38513 24.4931 -9.09936
LeftLeg  17.0662 5.62963 -0.510926
LeftFoot  -9.29762 0.0430919 0.711778
LeftToes  1.06243e-005 4.65856e-005 -8.18503e-006
